<?xml version="1.0" encoding="UTF-8"?>
<svg xmlns="http://www.w3.org/2000/svg" width="416" height="190" viewBox="0 0 416 190" role="img" aria-labelledby="usage-activity-title usage-activity-desc">
<title id="usage-activity-title">AI usage activity</title>
<desc id="usage-activity-desc">A 53 by 7 activity heatmap with active days, current and longest streaks, and peak usage through 2026-07-20. Unknown days are outlined; partial and mixed observations use dashed borders and text markers.</desc>
<style>:root{--bg:#ffffff;--surface:#f6f8fa;--border:#d0d7de;--text:#1f2328;--muted:#57606a;--accent:#0969da;--accent-soft:#ddf4ff;--claude:#9a6700;--codex:#0969da;--mixed:#8250df;--unknown:#57606a;--zero:#eaeef2;--on-accent:#ffffff;--on-partial:#ffffff;--on-mixed:#ffffff;--on-unknown:#ffffff;--heat-1:#b6e3ff;--heat-2:#54aeff;--heat-3:#218bff;--heat-4:#0969da}
@media (prefers-color-scheme: dark){:root{--bg:#0d1117;--surface:#161b22;--border:#30363d;--text:#e6edf3;--muted:#8c959f;--accent:#58a6ff;--accent-soft:#1f3b57;--claude:#d29922;--codex:#58a6ff;--mixed:#bc8cff;--unknown:#8c959f;--zero:#21262d;--on-accent:#0d1117;--on-partial:#0d1117;--on-mixed:#0d1117;--on-unknown:#0d1117;--heat-1:#0e4429;--heat-2:#006d32;--heat-3:#26a641;--heat-4:#39d353}}
.card-bg{fill:var(--bg);stroke:var(--border);stroke-width:1}
.heading{fill:var(--text);font-family:system-ui,sans-serif;font-size:14px;font-weight:600}
.subheading{fill:var(--muted);font-family:system-ui,sans-serif;font-size:9px}
.label{fill:var(--muted);font-family:system-ui,sans-serif;font-size:9px;font-weight:600}
.value{fill:var(--text);font-family:system-ui,sans-serif;font-size:17px;font-weight:600}
.small-value{fill:var(--text);font-family:system-ui,sans-serif;font-size:11px;font-weight:600}
.meta{fill:var(--muted);font-family:system-ui,sans-serif;font-size:8px}
.divider{stroke:var(--border);stroke-width:1}
.bar-track{fill:var(--surface);stroke:var(--border);stroke-width:1}
.source-claude{fill:var(--claude)}
.source-codex{fill:var(--codex)}
.mix-input{fill:#1a7f37}
.mix-output{fill:#cf222e}
.mix-cache-read{fill:#bf8700}
.mix-cache-write{fill:#8250df}
.mix-unknown{fill:var(--unknown)}
.trend-bar{fill:var(--accent)}
.state-zero{fill:var(--zero)}
.state-partial{fill:var(--accent);stroke:var(--claude);stroke-width:1;stroke-dasharray:2 2}
.state-mixed{fill:var(--accent);stroke:var(--mixed);stroke-width:1;stroke-dasharray:4 2}
.state-unknown{fill:none;stroke:var(--unknown);stroke-width:1;stroke-dasharray:2 2}
.state-future{fill:none;stroke:var(--border);stroke-width:1}
.heat-cell{stroke:var(--border);stroke-width:0.5}
.level-1{fill:var(--heat-1)}
.level-2{fill:var(--heat-2)}
.level-3{fill:var(--heat-3)}
.level-4{fill:var(--heat-4)}
.coverage-partial{stroke:var(--claude);stroke-width:1;stroke-dasharray:1 1}
.coverage-mixed{stroke:var(--mixed);stroke-width:1;stroke-dasharray:3 1}
.coverage-unknown{fill:none;stroke:var(--unknown);stroke-width:1;stroke-dasharray:2 2}</style>
<rect class="card-bg" x="0.5" y="0.5" width="415" height="189" rx="6"/>
<text class="heading" x="16" y="27">AI activity</text>
<text class="subheading" x="16" y="43">53 weeks · through 2026-07-20 · Monday start</text>
<text class="meta" x="25" y="60" text-anchor="end">M</text>
<text class="meta" x="25" y="67" text-anchor="end">T</text>
<text class="meta" x="25" y="74" text-anchor="end">W</text>
<text class="meta" x="25" y="81" text-anchor="end">T</text>
<text class="meta" x="25" y="88" text-anchor="end">F</text>
<text class="meta" x="25" y="95" text-anchor="end">S</text>
<text class="meta" x="25" y="102" text-anchor="end">S</text>
<rect class="heat-cell state-unknown level-0 coverage-unknown" x="31" y="55" width="5" height="5" rx="1"/>
<rect class="heat-cell state-unknown level-0 coverage-unknown" x="31" y="62" width="5" height="5" rx="1"/>
<rect class="heat-cell state-unknown level-0 coverage-unknown" x="31" y="69" width="5" height="5" rx="1"/>
<rect class="heat-cell state-unknown level-0 coverage-unknown" x="31" y="76" width="5" height="5" rx="1"/>
<rect class="heat-cell state-unknown level-0 coverage-unknown" x="31" y="83" width="5" height="5" rx="1"/>
<rect class="heat-cell state-unknown level-0 coverage-unknown" x="31" y="90" width="5" height="5" rx="1"/>
<rect class="heat-cell state-unknown level-0 coverage-unknown" x="31" y="97" width="5" height="5" rx="1"/>
<rect class="heat-cell state-unknown level-0 coverage-unknown" x="38" y="55" width="5" height="5" rx="1"/>
<rect class="heat-cell state-unknown level-0 coverage-unknown" x="38" y="62" width="5" height="5" rx="1"/>
<rect class="heat-cell state-unknown level-0 coverage-unknown" x="38" y="69" width="5" height="5" rx="1"/>
<rect class="heat-cell state-unknown level-0 coverage-unknown" x="38" y="76" width="5" height="5" rx="1"/>
<rect class="heat-cell state-unknown level-0 coverage-unknown" x="38" y="83" width="5" height="5" rx="1"/>
<rect class="heat-cell state-unknown level-0 coverage-unknown" x="38" y="90" width="5" height="5" rx="1"/>
<rect class="heat-cell state-unknown level-0 coverage-unknown" x="38" y="97" width="5" height="5" rx="1"/>
<rect class="heat-cell state-unknown level-0 coverage-unknown" x="45" y="55" width="5" height="5" rx="1"/>
<rect class="heat-cell state-unknown level-0 coverage-unknown" x="45" y="62" width="5" height="5" rx="1"/>
<rect class="heat-cell state-unknown level-0 coverage-unknown" x="45" y="69" width="5" height="5" rx="1"/>
<rect class="heat-cell state-unknown level-0 coverage-unknown" x="45" y="76" width="5" height="5" rx="1"/>
<rect class="heat-cell state-unknown level-0 coverage-unknown" x="45" y="83" width="5" height="5" rx="1"/>
<rect class="heat-cell state-unknown level-0 coverage-unknown" x="45" y="90" width="5" height="5" rx="1"/>
<rect class="heat-cell state-unknown level-0 coverage-unknown" x="45" y="97" width="5" height="5" rx="1"/>
<rect class="heat-cell state-unknown level-0 coverage-unknown" x="52" y="55" width="5" height="5" rx="1"/>
<rect class="heat-cell state-unknown level-0 coverage-unknown" x="52" y="62" width="5" height="5" rx="1"/>
<rect class="heat-cell state-unknown level-0 coverage-unknown" x="52" y="69" width="5" height="5" rx="1"/>
<rect class="heat-cell state-unknown level-0 coverage-unknown" x="52" y="76" width="5" height="5" rx="1"/>
<rect class="heat-cell state-unknown level-0 coverage-unknown" x="52" y="83" width="5" height="5" rx="1"/>
<rect class="heat-cell state-unknown level-0 coverage-unknown" x="52" y="90" width="5" height="5" rx="1"/>
<rect class="heat-cell state-unknown level-0 coverage-unknown" x="52" y="97" width="5" height="5" rx="1"/>
<rect class="heat-cell state-unknown level-0 coverage-unknown" x="59" y="55" width="5" height="5" rx="1"/>
<rect class="heat-cell state-unknown level-0 coverage-unknown" x="59" y="62" width="5" height="5" rx="1"/>
<rect class="heat-cell state-unknown level-0 coverage-unknown" x="59" y="69" width="5" height="5" rx="1"/>
<rect class="heat-cell state-unknown level-0 coverage-unknown" x="59" y="76" width="5" height="5" rx="1"/>
<rect class="heat-cell state-unknown level-0 coverage-unknown" x="59" y="83" width="5" height="5" rx="1"/>
<rect class="heat-cell state-unknown level-0 coverage-unknown" x="59" y="90" width="5" height="5" rx="1"/>
<rect class="heat-cell state-unknown level-0 coverage-unknown" x="59" y="97" width="5" height="5" rx="1"/>
<rect class="heat-cell state-unknown level-0 coverage-unknown" x="66" y="55" width="5" height="5" rx="1"/>
<rect class="heat-cell state-unknown level-0 coverage-unknown" x="66" y="62" width="5" height="5" rx="1"/>
<rect class="heat-cell state-unknown level-0 coverage-unknown" x="66" y="69" width="5" height="5" rx="1"/>
<rect class="heat-cell state-unknown level-0 coverage-unknown" x="66" y="76" width="5" height="5" rx="1"/>
<rect class="heat-cell state-unknown level-0 coverage-unknown" x="66" y="83" width="5" height="5" rx="1"/>
<rect class="heat-cell state-unknown level-0 coverage-unknown" x="66" y="90" width="5" height="5" rx="1"/>
<rect class="heat-cell state-unknown level-0 coverage-unknown" x="66" y="97" width="5" height="5" rx="1"/>
<rect class="heat-cell state-unknown level-0 coverage-unknown" x="73" y="55" width="5" height="5" rx="1"/>
<rect class="heat-cell state-unknown level-0 coverage-unknown" x="73" y="62" width="5" height="5" rx="1"/>
<rect class="heat-cell state-unknown level-0 coverage-unknown" x="73" y="69" width="5" height="5" rx="1"/>
<rect class="heat-cell state-unknown level-0 coverage-unknown" x="73" y="76" width="5" height="5" rx="1"/>
<rect class="heat-cell state-unknown level-0 coverage-unknown" x="73" y="83" width="5" height="5" rx="1"/>
<rect class="heat-cell state-unknown level-0 coverage-unknown" x="73" y="90" width="5" height="5" rx="1"/>
<rect class="heat-cell state-unknown level-0 coverage-unknown" x="73" y="97" width="5" height="5" rx="1"/>
<rect class="heat-cell state-unknown level-0 coverage-unknown" x="80" y="55" width="5" height="5" rx="1"/>
<rect class="heat-cell state-unknown level-0 coverage-unknown" x="80" y="62" width="5" height="5" rx="1"/>
<rect class="heat-cell state-unknown level-0 coverage-unknown" x="80" y="69" width="5" height="5" rx="1"/>
<rect class="heat-cell state-unknown level-0 coverage-unknown" x="80" y="76" width="5" height="5" rx="1"/>
<rect class="heat-cell state-unknown level-0 coverage-unknown" x="80" y="83" width="5" height="5" rx="1"/>
<rect class="heat-cell state-unknown level-0 coverage-unknown" x="80" y="90" width="5" height="5" rx="1"/>
<rect class="heat-cell state-unknown level-0 coverage-unknown" x="80" y="97" width="5" height="5" rx="1"/>
<rect class="heat-cell state-unknown level-0 coverage-unknown" x="87" y="55" width="5" height="5" rx="1"/>
<rect class="heat-cell state-unknown level-0 coverage-unknown" x="87" y="62" width="5" height="5" rx="1"/>
<rect class="heat-cell state-unknown level-0 coverage-unknown" x="87" y="69" width="5" height="5" rx="1"/>
<rect class="heat-cell state-unknown level-0 coverage-unknown" x="87" y="76" width="5" height="5" rx="1"/>
<rect class="heat-cell state-unknown level-0 coverage-unknown" x="87" y="83" width="5" height="5" rx="1"/>
<rect class="heat-cell state-unknown level-0 coverage-unknown" x="87" y="90" width="5" height="5" rx="1"/>
<rect class="heat-cell state-unknown level-0 coverage-unknown" x="87" y="97" width="5" height="5" rx="1"/>
<rect class="heat-cell state-unknown level-0 coverage-unknown" x="94" y="55" width="5" height="5" rx="1"/>
<rect class="heat-cell state-unknown level-0 coverage-unknown" x="94" y="62" width="5" height="5" rx="1"/>
<rect class="heat-cell state-unknown level-0 coverage-unknown" x="94" y="69" width="5" height="5" rx="1"/>
<rect class="heat-cell state-unknown level-0 coverage-unknown" x="94" y="76" width="5" height="5" rx="1"/>
<rect class="heat-cell state-unknown level-0 coverage-unknown" x="94" y="83" width="5" height="5" rx="1"/>
<rect class="heat-cell state-unknown level-0 coverage-unknown" x="94" y="90" width="5" height="5" rx="1"/>
<rect class="heat-cell state-unknown level-0 coverage-unknown" x="94" y="97" width="5" height="5" rx="1"/>
<rect class="heat-cell state-unknown level-0 coverage-unknown" x="101" y="55" width="5" height="5" rx="1"/>
<rect class="heat-cell state-unknown level-0 coverage-unknown" x="101" y="62" width="5" height="5" rx="1"/>
<rect class="heat-cell state-unknown level-0 coverage-unknown" x="101" y="69" width="5" height="5" rx="1"/>
<rect class="heat-cell state-unknown level-0 coverage-unknown" x="101" y="76" width="5" height="5" rx="1"/>
<rect class="heat-cell state-unknown level-0 coverage-unknown" x="101" y="83" width="5" height="5" rx="1"/>
<rect class="heat-cell state-unknown level-0 coverage-unknown" x="101" y="90" width="5" height="5" rx="1"/>
<rect class="heat-cell state-unknown level-0 coverage-unknown" x="101" y="97" width="5" height="5" rx="1"/>
<rect class="heat-cell state-unknown level-0 coverage-unknown" x="108" y="55" width="5" height="5" rx="1"/>
<rect class="heat-cell state-unknown level-0 coverage-unknown" x="108" y="62" width="5" height="5" rx="1"/>
<rect class="heat-cell state-unknown level-0 coverage-unknown" x="108" y="69" width="5" height="5" rx="1"/>
<rect class="heat-cell state-unknown level-0 coverage-unknown" x="108" y="76" width="5" height="5" rx="1"/>
<rect class="heat-cell state-unknown level-0 coverage-unknown" x="108" y="83" width="5" height="5" rx="1"/>
<rect class="heat-cell state-unknown level-0 coverage-unknown" x="108" y="90" width="5" height="5" rx="1"/>
<rect class="heat-cell state-unknown level-0 coverage-unknown" x="108" y="97" width="5" height="5" rx="1"/>
<rect class="heat-cell state-unknown level-0 coverage-unknown" x="115" y="55" width="5" height="5" rx="1"/>
<rect class="heat-cell state-unknown level-0 coverage-unknown" x="115" y="62" width="5" height="5" rx="1"/>
<rect class="heat-cell state-unknown level-0 coverage-unknown" x="115" y="69" width="5" height="5" rx="1"/>
<rect class="heat-cell state-unknown level-0 coverage-unknown" x="115" y="76" width="5" height="5" rx="1"/>
<rect class="heat-cell state-unknown level-0 coverage-unknown" x="115" y="83" width="5" height="5" rx="1"/>
<rect class="heat-cell state-unknown level-0 coverage-unknown" x="115" y="90" width="5" height="5" rx="1"/>
<rect class="heat-cell state-unknown level-0 coverage-unknown" x="115" y="97" width="5" height="5" rx="1"/>
<rect class="heat-cell state-unknown level-0 coverage-unknown" x="122" y="55" width="5" height="5" rx="1"/>
<rect class="heat-cell state-unknown level-0 coverage-unknown" x="122" y="62" width="5" height="5" rx="1"/>
<rect class="heat-cell state-unknown level-0 coverage-unknown" x="122" y="69" width="5" height="5" rx="1"/>
<rect class="heat-cell state-unknown level-0 coverage-unknown" x="122" y="76" width="5" height="5" rx="1"/>
<rect class="heat-cell state-unknown level-0 coverage-unknown" x="122" y="83" width="5" height="5" rx="1"/>
<rect class="heat-cell state-unknown level-0 coverage-unknown" x="122" y="90" width="5" height="5" rx="1"/>
<rect class="heat-cell state-unknown level-0 coverage-unknown" x="122" y="97" width="5" height="5" rx="1"/>
<rect class="heat-cell state-unknown level-0 coverage-unknown" x="129" y="55" width="5" height="5" rx="1"/>
<rect class="heat-cell state-unknown level-0 coverage-unknown" x="129" y="62" width="5" height="5" rx="1"/>
<rect class="heat-cell state-unknown level-0 coverage-unknown" x="129" y="69" width="5" height="5" rx="1"/>
<rect class="heat-cell state-unknown level-0 coverage-unknown" x="129" y="76" width="5" height="5" rx="1"/>
<rect class="heat-cell state-unknown level-0 coverage-unknown" x="129" y="83" width="5" height="5" rx="1"/>
<rect class="heat-cell state-unknown level-0 coverage-unknown" x="129" y="90" width="5" height="5" rx="1"/>
<rect class="heat-cell state-unknown level-0 coverage-unknown" x="129" y="97" width="5" height="5" rx="1"/>
<rect class="heat-cell state-unknown level-0 coverage-unknown" x="136" y="55" width="5" height="5" rx="1"/>
<rect class="heat-cell state-unknown level-0 coverage-unknown" x="136" y="62" width="5" height="5" rx="1"/>
<rect class="heat-cell state-unknown level-0 coverage-unknown" x="136" y="69" width="5" height="5" rx="1"/>
<rect class="heat-cell state-unknown level-0 coverage-unknown" x="136" y="76" width="5" height="5" rx="1"/>
<rect class="heat-cell state-unknown level-0 coverage-unknown" x="136" y="83" width="5" height="5" rx="1"/>
<rect class="heat-cell state-unknown level-0 coverage-unknown" x="136" y="90" width="5" height="5" rx="1"/>
<rect class="heat-cell state-unknown level-0 coverage-unknown" x="136" y="97" width="5" height="5" rx="1"/>
<rect class="heat-cell state-unknown level-0 coverage-unknown" x="143" y="55" width="5" height="5" rx="1"/>
<rect class="heat-cell state-unknown level-0 coverage-unknown" x="143" y="62" width="5" height="5" rx="1"/>
<rect class="heat-cell state-unknown level-0 coverage-unknown" x="143" y="69" width="5" height="5" rx="1"/>
<rect class="heat-cell state-unknown level-0 coverage-unknown" x="143" y="76" width="5" height="5" rx="1"/>
<rect class="heat-cell state-unknown level-0 coverage-unknown" x="143" y="83" width="5" height="5" rx="1"/>
<rect class="heat-cell state-unknown level-0 coverage-unknown" x="143" y="90" width="5" height="5" rx="1"/>
<rect class="heat-cell state-unknown level-0 coverage-unknown" x="143" y="97" width="5" height="5" rx="1"/>
<rect class="heat-cell state-unknown level-0 coverage-unknown" x="150" y="55" width="5" height="5" rx="1"/>
<rect class="heat-cell state-unknown level-0 coverage-unknown" x="150" y="62" width="5" height="5" rx="1"/>
<rect class="heat-cell state-unknown level-0 coverage-unknown" x="150" y="69" width="5" height="5" rx="1"/>
<rect class="heat-cell state-unknown level-0 coverage-unknown" x="150" y="76" width="5" height="5" rx="1"/>
<rect class="heat-cell state-unknown level-0 coverage-unknown" x="150" y="83" width="5" height="5" rx="1"/>
<rect class="heat-cell state-unknown level-0 coverage-unknown" x="150" y="90" width="5" height="5" rx="1"/>
<rect class="heat-cell state-unknown level-0 coverage-unknown" x="150" y="97" width="5" height="5" rx="1"/>
<rect class="heat-cell state-unknown level-0 coverage-unknown" x="157" y="55" width="5" height="5" rx="1"/>
<rect class="heat-cell state-unknown level-0 coverage-unknown" x="157" y="62" width="5" height="5" rx="1"/>
<rect class="heat-cell state-unknown level-0 coverage-unknown" x="157" y="69" width="5" height="5" rx="1"/>
<rect class="heat-cell state-unknown level-0 coverage-unknown" x="157" y="76" width="5" height="5" rx="1"/>
<rect class="heat-cell state-unknown level-0 coverage-unknown" x="157" y="83" width="5" height="5" rx="1"/>
<rect class="heat-cell state-unknown level-0 coverage-unknown" x="157" y="90" width="5" height="5" rx="1"/>
<rect class="heat-cell state-unknown level-0 coverage-unknown" x="157" y="97" width="5" height="5" rx="1"/>
<rect class="heat-cell state-unknown level-0 coverage-unknown" x="164" y="55" width="5" height="5" rx="1"/>
<rect class="heat-cell state-unknown level-0 coverage-unknown" x="164" y="62" width="5" height="5" rx="1"/>
<rect class="heat-cell state-unknown level-0 coverage-unknown" x="164" y="69" width="5" height="5" rx="1"/>
<rect class="heat-cell state-unknown level-0 coverage-unknown" x="164" y="76" width="5" height="5" rx="1"/>
<rect class="heat-cell state-unknown level-0 coverage-unknown" x="164" y="83" width="5" height="5" rx="1"/>
<rect class="heat-cell state-unknown level-0 coverage-unknown" x="164" y="90" width="5" height="5" rx="1"/>
<rect class="heat-cell state-unknown level-0 coverage-unknown" x="164" y="97" width="5" height="5" rx="1"/>
<rect class="heat-cell state-unknown level-0 coverage-unknown" x="171" y="55" width="5" height="5" rx="1"/>
<rect class="heat-cell state-unknown level-0 coverage-unknown" x="171" y="62" width="5" height="5" rx="1"/>
<rect class="heat-cell state-unknown level-0 coverage-unknown" x="171" y="69" width="5" height="5" rx="1"/>
<rect class="heat-cell state-unknown level-0 coverage-unknown" x="171" y="76" width="5" height="5" rx="1"/>
<rect class="heat-cell state-unknown level-0 coverage-unknown" x="171" y="83" width="5" height="5" rx="1"/>
<rect class="heat-cell state-unknown level-0 coverage-unknown" x="171" y="90" width="5" height="5" rx="1"/>
<rect class="heat-cell state-unknown level-0 coverage-unknown" x="171" y="97" width="5" height="5" rx="1"/>
<rect class="heat-cell state-unknown level-0 coverage-unknown" x="178" y="55" width="5" height="5" rx="1"/>
<rect class="heat-cell state-unknown level-0 coverage-unknown" x="178" y="62" width="5" height="5" rx="1"/>
<rect class="heat-cell state-unknown level-0 coverage-unknown" x="178" y="69" width="5" height="5" rx="1"/>
<rect class="heat-cell state-unknown level-0 coverage-unknown" x="178" y="76" width="5" height="5" rx="1"/>
<rect class="heat-cell state-unknown level-0 coverage-unknown" x="178" y="83" width="5" height="5" rx="1"/>
<rect class="heat-cell state-unknown level-0 coverage-unknown" x="178" y="90" width="5" height="5" rx="1"/>
<rect class="heat-cell state-unknown level-0 coverage-unknown" x="178" y="97" width="5" height="5" rx="1"/>
<rect class="heat-cell state-unknown level-0 coverage-unknown" x="185" y="55" width="5" height="5" rx="1"/>
<rect class="heat-cell state-unknown level-0 coverage-unknown" x="185" y="62" width="5" height="5" rx="1"/>
<rect class="heat-cell state-unknown level-0 coverage-unknown" x="185" y="69" width="5" height="5" rx="1"/>
<rect class="heat-cell state-unknown level-0 coverage-unknown" x="185" y="76" width="5" height="5" rx="1"/>
<rect class="heat-cell state-unknown level-0 coverage-unknown" x="185" y="83" width="5" height="5" rx="1"/>
<rect class="heat-cell state-unknown level-0 coverage-unknown" x="185" y="90" width="5" height="5" rx="1"/>
<rect class="heat-cell state-unknown level-0 coverage-unknown" x="185" y="97" width="5" height="5" rx="1"/>
<rect class="heat-cell state-unknown level-0 coverage-unknown" x="192" y="55" width="5" height="5" rx="1"/>
<rect class="heat-cell state-unknown level-0 coverage-unknown" x="192" y="62" width="5" height="5" rx="1"/>
<rect class="heat-cell state-unknown level-0 coverage-unknown" x="192" y="69" width="5" height="5" rx="1"/>
<rect class="heat-cell state-unknown level-0 coverage-unknown" x="192" y="76" width="5" height="5" rx="1"/>
<rect class="heat-cell state-unknown level-0 coverage-unknown" x="192" y="83" width="5" height="5" rx="1"/>
<rect class="heat-cell state-unknown level-0 coverage-unknown" x="192" y="90" width="5" height="5" rx="1"/>
<rect class="heat-cell state-unknown level-0 coverage-unknown" x="192" y="97" width="5" height="5" rx="1"/>
<rect class="heat-cell state-unknown level-0 coverage-unknown" x="199" y="55" width="5" height="5" rx="1"/>
<rect class="heat-cell state-unknown level-0 coverage-unknown" x="199" y="62" width="5" height="5" rx="1"/>
<rect class="heat-cell state-unknown level-0 coverage-unknown" x="199" y="69" width="5" height="5" rx="1"/>
<rect class="heat-cell state-unknown level-0 coverage-unknown" x="199" y="76" width="5" height="5" rx="1"/>
<rect class="heat-cell state-unknown level-0 coverage-unknown" x="199" y="83" width="5" height="5" rx="1"/>
<rect class="heat-cell state-unknown level-0 coverage-unknown" x="199" y="90" width="5" height="5" rx="1"/>
<rect class="heat-cell state-unknown level-0 coverage-unknown" x="199" y="97" width="5" height="5" rx="1"/>
<rect class="heat-cell state-unknown level-0 coverage-unknown" x="206" y="55" width="5" height="5" rx="1"/>
<rect class="heat-cell state-unknown level-0 coverage-unknown" x="206" y="62" width="5" height="5" rx="1"/>
<rect class="heat-cell state-unknown level-0 coverage-unknown" x="206" y="69" width="5" height="5" rx="1"/>
<rect class="heat-cell state-unknown level-0 coverage-unknown" x="206" y="76" width="5" height="5" rx="1"/>
<rect class="heat-cell state-unknown level-0 coverage-unknown" x="206" y="83" width="5" height="5" rx="1"/>
<rect class="heat-cell state-unknown level-0 coverage-unknown" x="206" y="90" width="5" height="5" rx="1"/>
<rect class="heat-cell state-unknown level-0 coverage-unknown" x="206" y="97" width="5" height="5" rx="1"/>
<rect class="heat-cell state-unknown level-0 coverage-unknown" x="213" y="55" width="5" height="5" rx="1"/>
<rect class="heat-cell state-unknown level-0 coverage-unknown" x="213" y="62" width="5" height="5" rx="1"/>
<rect class="heat-cell state-unknown level-0 coverage-unknown" x="213" y="69" width="5" height="5" rx="1"/>
<rect class="heat-cell state-unknown level-0 coverage-unknown" x="213" y="76" width="5" height="5" rx="1"/>
<rect class="heat-cell state-unknown level-0 coverage-unknown" x="213" y="83" width="5" height="5" rx="1"/>
<rect class="heat-cell state-unknown level-0 coverage-unknown" x="213" y="90" width="5" height="5" rx="1"/>
<rect class="heat-cell state-unknown level-0 coverage-unknown" x="213" y="97" width="5" height="5" rx="1"/>
<rect class="heat-cell state-unknown level-0 coverage-unknown" x="220" y="55" width="5" height="5" rx="1"/>
<rect class="heat-cell state-unknown level-0 coverage-unknown" x="220" y="62" width="5" height="5" rx="1"/>
<rect class="heat-cell state-unknown level-0 coverage-unknown" x="220" y="69" width="5" height="5" rx="1"/>
<rect class="heat-cell state-unknown level-0 coverage-unknown" x="220" y="76" width="5" height="5" rx="1"/>
<rect class="heat-cell state-unknown level-0 coverage-unknown" x="220" y="83" width="5" height="5" rx="1"/>
<rect class="heat-cell state-unknown level-0 coverage-unknown" x="220" y="90" width="5" height="5" rx="1"/>
<rect class="heat-cell state-unknown level-0 coverage-unknown" x="220" y="97" width="5" height="5" rx="1"/>
<rect class="heat-cell state-unknown level-0 coverage-unknown" x="227" y="55" width="5" height="5" rx="1"/>
<rect class="heat-cell state-unknown level-0 coverage-unknown" x="227" y="62" width="5" height="5" rx="1"/>
<rect class="heat-cell state-unknown level-0 coverage-unknown" x="227" y="69" width="5" height="5" rx="1"/>
<rect class="heat-cell state-unknown level-0 coverage-unknown" x="227" y="76" width="5" height="5" rx="1"/>
<rect class="heat-cell state-unknown level-0 coverage-unknown" x="227" y="83" width="5" height="5" rx="1"/>
<rect class="heat-cell state-unknown level-0 coverage-unknown" x="227" y="90" width="5" height="5" rx="1"/>
<rect class="heat-cell state-unknown level-0 coverage-unknown" x="227" y="97" width="5" height="5" rx="1"/>
<rect class="heat-cell state-unknown level-0 coverage-unknown" x="234" y="55" width="5" height="5" rx="1"/>
<rect class="heat-cell state-unknown level-0 coverage-unknown" x="234" y="62" width="5" height="5" rx="1"/>
<rect class="heat-cell state-unknown level-0 coverage-unknown" x="234" y="69" width="5" height="5" rx="1"/>
<rect class="heat-cell state-unknown level-0 coverage-unknown" x="234" y="76" width="5" height="5" rx="1"/>
<rect class="heat-cell state-unknown level-0 coverage-unknown" x="234" y="83" width="5" height="5" rx="1"/>
<rect class="heat-cell state-unknown level-0 coverage-unknown" x="234" y="90" width="5" height="5" rx="1"/>
<rect class="heat-cell state-unknown level-0 coverage-unknown" x="234" y="97" width="5" height="5" rx="1"/>
<rect class="heat-cell state-unknown level-0 coverage-unknown" x="241" y="55" width="5" height="5" rx="1"/>
<rect class="heat-cell state-active level-4 coverage-partial" x="241" y="62" width="5" height="5" rx="1"/>
<rect class="heat-cell state-active level-2 coverage-partial" x="241" y="69" width="5" height="5" rx="1"/>
<rect class="heat-cell state-unknown level-0 coverage-partial" x="241" y="76" width="5" height="5" rx="1"/>
<rect class="heat-cell state-unknown level-0 coverage-partial" x="241" y="83" width="5" height="5" rx="1"/>
<rect class="heat-cell state-unknown level-0 coverage-partial" x="241" y="90" width="5" height="5" rx="1"/>
<rect class="heat-cell state-unknown level-0 coverage-partial" x="241" y="97" width="5" height="5" rx="1"/>
<rect class="heat-cell state-unknown level-0 coverage-partial" x="248" y="55" width="5" height="5" rx="1"/>
<rect class="heat-cell state-unknown level-0 coverage-partial" x="248" y="62" width="5" height="5" rx="1"/>
<rect class="heat-cell state-unknown level-0 coverage-partial" x="248" y="69" width="5" height="5" rx="1"/>
<rect class="heat-cell state-unknown level-0 coverage-partial" x="248" y="76" width="5" height="5" rx="1"/>
<rect class="heat-cell state-unknown level-0 coverage-partial" x="248" y="83" width="5" height="5" rx="1"/>
<rect class="heat-cell state-unknown level-0 coverage-partial" x="248" y="90" width="5" height="5" rx="1"/>
<rect class="heat-cell state-unknown level-0 coverage-partial" x="248" y="97" width="5" height="5" rx="1"/>
<rect class="heat-cell state-unknown level-0 coverage-partial" x="255" y="55" width="5" height="5" rx="1"/>
<rect class="heat-cell state-unknown level-0 coverage-partial" x="255" y="62" width="5" height="5" rx="1"/>
<rect class="heat-cell state-unknown level-0 coverage-partial" x="255" y="69" width="5" height="5" rx="1"/>
<rect class="heat-cell state-unknown level-0 coverage-partial" x="255" y="76" width="5" height="5" rx="1"/>
<rect class="heat-cell state-unknown level-0 coverage-partial" x="255" y="83" width="5" height="5" rx="1"/>
<rect class="heat-cell state-unknown level-0 coverage-partial" x="255" y="90" width="5" height="5" rx="1"/>
<rect class="heat-cell state-unknown level-0 coverage-partial" x="255" y="97" width="5" height="5" rx="1"/>
<rect class="heat-cell state-unknown level-0 coverage-partial" x="262" y="55" width="5" height="5" rx="1"/>
<rect class="heat-cell state-unknown level-0 coverage-partial" x="262" y="62" width="5" height="5" rx="1"/>
<rect class="heat-cell state-unknown level-0 coverage-partial" x="262" y="69" width="5" height="5" rx="1"/>
<rect class="heat-cell state-unknown level-0 coverage-partial" x="262" y="76" width="5" height="5" rx="1"/>
<rect class="heat-cell state-unknown level-0 coverage-partial" x="262" y="83" width="5" height="5" rx="1"/>
<rect class="heat-cell state-unknown level-0 coverage-partial" x="262" y="90" width="5" height="5" rx="1"/>
<rect class="heat-cell state-unknown level-0 coverage-partial" x="262" y="97" width="5" height="5" rx="1"/>
<rect class="heat-cell state-unknown level-0 coverage-partial" x="269" y="55" width="5" height="5" rx="1"/>
<rect class="heat-cell state-unknown level-0 coverage-partial" x="269" y="62" width="5" height="5" rx="1"/>
<rect class="heat-cell state-unknown level-0 coverage-partial" x="269" y="69" width="5" height="5" rx="1"/>
<rect class="heat-cell state-unknown level-0 coverage-partial" x="269" y="76" width="5" height="5" rx="1"/>
<rect class="heat-cell state-unknown level-0 coverage-partial" x="269" y="83" width="5" height="5" rx="1"/>
<rect class="heat-cell state-unknown level-0 coverage-partial" x="269" y="90" width="5" height="5" rx="1"/>
<rect class="heat-cell state-unknown level-0 coverage-partial" x="269" y="97" width="5" height="5" rx="1"/>
<rect class="heat-cell state-unknown level-0 coverage-partial" x="276" y="55" width="5" height="5" rx="1"/>
<rect class="heat-cell state-unknown level-0 coverage-partial" x="276" y="62" width="5" height="5" rx="1"/>
<rect class="heat-cell state-unknown level-0 coverage-partial" x="276" y="69" width="5" height="5" rx="1"/>
<rect class="heat-cell state-unknown level-0 coverage-partial" x="276" y="76" width="5" height="5" rx="1"/>
<rect class="heat-cell state-unknown level-0 coverage-partial" x="276" y="83" width="5" height="5" rx="1"/>
<rect class="heat-cell state-unknown level-0 coverage-partial" x="276" y="90" width="5" height="5" rx="1"/>
<rect class="heat-cell state-unknown level-0 coverage-partial" x="276" y="97" width="5" height="5" rx="1"/>
<rect class="heat-cell state-unknown level-0 coverage-partial" x="283" y="55" width="5" height="5" rx="1"/>
<rect class="heat-cell state-unknown level-0 coverage-partial" x="283" y="62" width="5" height="5" rx="1"/>
<rect class="heat-cell state-unknown level-0 coverage-partial" x="283" y="69" width="5" height="5" rx="1"/>
<rect class="heat-cell state-unknown level-0 coverage-partial" x="283" y="76" width="5" height="5" rx="1"/>
<rect class="heat-cell state-active level-1 coverage-partial" x="283" y="83" width="5" height="5" rx="1"/>
<rect class="heat-cell state-active level-2 coverage-partial" x="283" y="90" width="5" height="5" rx="1"/>
<rect class="heat-cell state-unknown level-0 coverage-partial" x="283" y="97" width="5" height="5" rx="1"/>
<rect class="heat-cell state-unknown level-0 coverage-partial" x="290" y="55" width="5" height="5" rx="1"/>
<rect class="heat-cell state-unknown level-0 coverage-partial" x="290" y="62" width="5" height="5" rx="1"/>
<rect class="heat-cell state-unknown level-0 coverage-partial" x="290" y="69" width="5" height="5" rx="1"/>
<rect class="heat-cell state-unknown level-0 coverage-partial" x="290" y="76" width="5" height="5" rx="1"/>
<rect class="heat-cell state-unknown level-0 coverage-partial" x="290" y="83" width="5" height="5" rx="1"/>
<rect class="heat-cell state-unknown level-0 coverage-partial" x="290" y="90" width="5" height="5" rx="1"/>
<rect class="heat-cell state-unknown level-0 coverage-partial" x="290" y="97" width="5" height="5" rx="1"/>
<rect class="heat-cell state-unknown level-0 coverage-partial" x="297" y="55" width="5" height="5" rx="1"/>
<rect class="heat-cell state-unknown level-0 coverage-partial" x="297" y="62" width="5" height="5" rx="1"/>
<rect class="heat-cell state-unknown level-0 coverage-partial" x="297" y="69" width="5" height="5" rx="1"/>
<rect class="heat-cell state-unknown level-0 coverage-partial" x="297" y="76" width="5" height="5" rx="1"/>
<rect class="heat-cell state-active level-3 coverage-partial" x="297" y="83" width="5" height="5" rx="1"/>
<rect class="heat-cell state-unknown level-0 coverage-partial" x="297" y="90" width="5" height="5" rx="1"/>
<rect class="heat-cell state-unknown level-0 coverage-partial" x="297" y="97" width="5" height="5" rx="1"/>
<rect class="heat-cell state-unknown level-0 coverage-partial" x="304" y="55" width="5" height="5" rx="1"/>
<rect class="heat-cell state-unknown level-0 coverage-partial" x="304" y="62" width="5" height="5" rx="1"/>
<rect class="heat-cell state-unknown level-0 coverage-partial" x="304" y="69" width="5" height="5" rx="1"/>
<rect class="heat-cell state-unknown level-0 coverage-partial" x="304" y="76" width="5" height="5" rx="1"/>
<rect class="heat-cell state-unknown level-0 coverage-partial" x="304" y="83" width="5" height="5" rx="1"/>
<rect class="heat-cell state-unknown level-0 coverage-partial" x="304" y="90" width="5" height="5" rx="1"/>
<rect class="heat-cell state-unknown level-0 coverage-partial" x="304" y="97" width="5" height="5" rx="1"/>
<rect class="heat-cell state-unknown level-0 coverage-partial" x="311" y="55" width="5" height="5" rx="1"/>
<rect class="heat-cell state-unknown level-0 coverage-partial" x="311" y="62" width="5" height="5" rx="1"/>
<rect class="heat-cell state-unknown level-0 coverage-partial" x="311" y="69" width="5" height="5" rx="1"/>
<rect class="heat-cell state-unknown level-0 coverage-partial" x="311" y="76" width="5" height="5" rx="1"/>
<rect class="heat-cell state-unknown level-0 coverage-partial" x="311" y="83" width="5" height="5" rx="1"/>
<rect class="heat-cell state-unknown level-0 coverage-partial" x="311" y="90" width="5" height="5" rx="1"/>
<rect class="heat-cell state-unknown level-0 coverage-partial" x="311" y="97" width="5" height="5" rx="1"/>
<rect class="heat-cell state-unknown level-0 coverage-partial" x="318" y="55" width="5" height="5" rx="1"/>
<rect class="heat-cell state-unknown level-0 coverage-partial" x="318" y="62" width="5" height="5" rx="1"/>
<rect class="heat-cell state-unknown level-0 coverage-partial" x="318" y="69" width="5" height="5" rx="1"/>
<rect class="heat-cell state-unknown level-0 coverage-partial" x="318" y="76" width="5" height="5" rx="1"/>
<rect class="heat-cell state-unknown level-0 coverage-partial" x="318" y="83" width="5" height="5" rx="1"/>
<rect class="heat-cell state-unknown level-0 coverage-partial" x="318" y="90" width="5" height="5" rx="1"/>
<rect class="heat-cell state-unknown level-0 coverage-partial" x="318" y="97" width="5" height="5" rx="1"/>
<rect class="heat-cell state-unknown level-0 coverage-partial" x="325" y="55" width="5" height="5" rx="1"/>
<rect class="heat-cell state-unknown level-0 coverage-partial" x="325" y="62" width="5" height="5" rx="1"/>
<rect class="heat-cell state-unknown level-0 coverage-partial" x="325" y="69" width="5" height="5" rx="1"/>
<rect class="heat-cell state-unknown level-0 coverage-partial" x="325" y="76" width="5" height="5" rx="1"/>
<rect class="heat-cell state-unknown level-0 coverage-partial" x="325" y="83" width="5" height="5" rx="1"/>
<rect class="heat-cell state-unknown level-0 coverage-partial" x="325" y="90" width="5" height="5" rx="1"/>
<rect class="heat-cell state-unknown level-0 coverage-partial" x="325" y="97" width="5" height="5" rx="1"/>
<rect class="heat-cell state-unknown level-0 coverage-partial" x="332" y="55" width="5" height="5" rx="1"/>
<rect class="heat-cell state-unknown level-0 coverage-partial" x="332" y="62" width="5" height="5" rx="1"/>
<rect class="heat-cell state-unknown level-0 coverage-partial" x="332" y="69" width="5" height="5" rx="1"/>
<rect class="heat-cell state-unknown level-0 coverage-partial" x="332" y="76" width="5" height="5" rx="1"/>
<rect class="heat-cell state-unknown level-0 coverage-partial" x="332" y="83" width="5" height="5" rx="1"/>
<rect class="heat-cell state-unknown level-0 coverage-partial" x="332" y="90" width="5" height="5" rx="1"/>
<rect class="heat-cell state-unknown level-0 coverage-partial" x="332" y="97" width="5" height="5" rx="1"/>
<rect class="heat-cell state-unknown level-0 coverage-partial" x="339" y="55" width="5" height="5" rx="1"/>
<rect class="heat-cell state-unknown level-0 coverage-partial" x="339" y="62" width="5" height="5" rx="1"/>
<rect class="heat-cell state-unknown level-0 coverage-partial" x="339" y="69" width="5" height="5" rx="1"/>
<rect class="heat-cell state-unknown level-0 coverage-partial" x="339" y="76" width="5" height="5" rx="1"/>
<rect class="heat-cell state-unknown level-0 coverage-partial" x="339" y="83" width="5" height="5" rx="1"/>
<rect class="heat-cell state-unknown level-0 coverage-partial" x="339" y="90" width="5" height="5" rx="1"/>
<rect class="heat-cell state-unknown level-0 coverage-partial" x="339" y="97" width="5" height="5" rx="1"/>
<rect class="heat-cell state-unknown level-0 coverage-partial" x="346" y="55" width="5" height="5" rx="1"/>
<rect class="heat-cell state-active level-2 coverage-partial" x="346" y="62" width="5" height="5" rx="1"/>
<rect class="heat-cell state-active level-3 coverage-partial" x="346" y="69" width="5" height="5" rx="1"/>
<rect class="heat-cell state-unknown level-0 coverage-partial" x="346" y="76" width="5" height="5" rx="1"/>
<rect class="heat-cell state-unknown level-0 coverage-partial" x="346" y="83" width="5" height="5" rx="1"/>
<rect class="heat-cell state-active level-1 coverage-partial" x="346" y="90" width="5" height="5" rx="1"/>
<rect class="heat-cell state-active level-2 coverage-partial" x="346" y="97" width="5" height="5" rx="1"/>
<rect class="heat-cell state-active level-1 coverage-partial" x="353" y="55" width="5" height="5" rx="1"/>
<rect class="heat-cell state-unknown level-0 coverage-partial" x="353" y="62" width="5" height="5" rx="1"/>
<rect class="heat-cell state-active level-2 coverage-partial" x="353" y="69" width="5" height="5" rx="1"/>
<rect class="heat-cell state-active level-2 coverage-partial" x="353" y="76" width="5" height="5" rx="1"/>
<rect class="heat-cell state-active level-3 coverage-partial" x="353" y="83" width="5" height="5" rx="1"/>
<rect class="heat-cell state-active level-3 coverage-partial" x="353" y="90" width="5" height="5" rx="1"/>
<rect class="heat-cell state-active level-4 coverage-partial" x="353" y="97" width="5" height="5" rx="1"/>
<rect class="heat-cell state-active level-3 coverage-partial" x="360" y="55" width="5" height="5" rx="1"/>
<rect class="heat-cell state-active level-2 coverage-partial" x="360" y="62" width="5" height="5" rx="1"/>
<rect class="heat-cell state-active level-1 coverage-partial" x="360" y="69" width="5" height="5" rx="1"/>
<rect class="heat-cell state-active level-1 coverage-partial" x="360" y="76" width="5" height="5" rx="1"/>
<rect class="heat-cell state-unknown level-0 coverage-partial" x="360" y="83" width="5" height="5" rx="1"/>
<rect class="heat-cell state-active level-1 coverage-partial" x="360" y="90" width="5" height="5" rx="1"/>
<rect class="heat-cell state-unknown level-0 coverage-partial" x="360" y="97" width="5" height="5" rx="1"/>
<rect class="heat-cell state-unknown level-0 coverage-partial" x="367" y="55" width="5" height="5" rx="1"/>
<rect class="heat-cell state-unknown level-0 coverage-partial" x="367" y="62" width="5" height="5" rx="1"/>
<rect class="heat-cell state-unknown level-0 coverage-partial" x="367" y="69" width="5" height="5" rx="1"/>
<rect class="heat-cell state-unknown level-0 coverage-partial" x="367" y="76" width="5" height="5" rx="1"/>
<rect class="heat-cell state-unknown level-0 coverage-partial" x="367" y="83" width="5" height="5" rx="1"/>
<rect class="heat-cell state-unknown level-0 coverage-partial" x="367" y="90" width="5" height="5" rx="1"/>
<rect class="heat-cell state-unknown level-0 coverage-partial" x="367" y="97" width="5" height="5" rx="1"/>
<rect class="heat-cell state-unknown level-0 coverage-partial" x="374" y="55" width="5" height="5" rx="1"/>
<rect class="heat-cell state-unknown level-0 coverage-partial" x="374" y="62" width="5" height="5" rx="1"/>
<rect class="heat-cell state-unknown level-0 coverage-partial" x="374" y="69" width="5" height="5" rx="1"/>
<rect class="heat-cell state-active level-1 coverage-partial" x="374" y="76" width="5" height="5" rx="1"/>
<rect class="heat-cell state-active level-4 coverage-partial" x="374" y="83" width="5" height="5" rx="1"/>
<rect class="heat-cell state-active level-3 coverage-partial" x="374" y="90" width="5" height="5" rx="1"/>
<rect class="heat-cell state-active level-3 coverage-partial" x="374" y="97" width="5" height="5" rx="1"/>
<rect class="heat-cell state-active level-3 coverage-partial" x="381" y="55" width="5" height="5" rx="1"/>
<rect class="heat-cell state-unknown level-0 coverage-partial" x="381" y="62" width="5" height="5" rx="1"/>
<rect class="heat-cell state-active level-1 coverage-partial" x="381" y="69" width="5" height="5" rx="1"/>
<rect class="heat-cell state-active level-3 coverage-partial" x="381" y="76" width="5" height="5" rx="1"/>
<rect class="heat-cell state-unknown level-0 coverage-partial" x="381" y="83" width="5" height="5" rx="1"/>
<rect class="heat-cell state-active level-4 coverage-partial" x="381" y="90" width="5" height="5" rx="1"/>
<rect class="heat-cell state-active level-4 coverage-partial" x="381" y="97" width="5" height="5" rx="1"/>
<rect class="heat-cell state-active level-1 coverage-partial" x="388" y="55" width="5" height="5" rx="1"/>
<rect class="heat-cell state-unknown level-0 coverage-partial" x="388" y="62" width="5" height="5" rx="1"/>
<rect class="heat-cell state-unknown level-0 coverage-partial" x="388" y="69" width="5" height="5" rx="1"/>
<rect class="heat-cell state-unknown level-0 coverage-partial" x="388" y="76" width="5" height="5" rx="1"/>
<rect class="heat-cell state-active level-4 coverage-partial" x="388" y="83" width="5" height="5" rx="1"/>
<rect class="heat-cell state-active level-2 coverage-partial" x="388" y="90" width="5" height="5" rx="1"/>
<rect class="heat-cell state-active level-4 coverage-partial" x="388" y="97" width="5" height="5" rx="1"/>
<rect class="heat-cell state-active level-4 coverage-complete" x="395" y="55" width="5" height="5" rx="1"/>
<rect class="heat-cell state-future level-0 coverage-unknown" x="395" y="62" width="5" height="5" rx="1"/>
<rect class="heat-cell state-future level-0 coverage-unknown" x="395" y="69" width="5" height="5" rx="1"/>
<rect class="heat-cell state-future level-0 coverage-unknown" x="395" y="76" width="5" height="5" rx="1"/>
<rect class="heat-cell state-future level-0 coverage-unknown" x="395" y="83" width="5" height="5" rx="1"/>
<rect class="heat-cell state-future level-0 coverage-unknown" x="395" y="90" width="5" height="5" rx="1"/>
<rect class="heat-cell state-future level-0 coverage-unknown" x="395" y="97" width="5" height="5" rx="1"/>
<text class="meta" x="31" y="117">2025-07-21</text>
<text class="meta" x="400" y="117" text-anchor="end">2026-07-26</text>
<line class="divider" x1="16" y1="127" x2="400" y2="127"/>
<text class="label" x="16" y="145">Active days</text>
<text class="value" x="16" y="166">≥34</text>
<text class="meta" x="16" y="180">Partial</text>
<text class="label" x="112" y="145">Current streak</text>
<text class="value" x="112" y="166">≥4</text>
<text class="meta" x="112" y="180">Partial</text>
<text class="label" x="208" y="145">Longest streak</text>
<text class="value" x="208" y="166">≥9</text>
<text class="meta" x="208" y="180">Partial</text>
<text class="label" x="304" y="145">Peak</text>
<text class="value" x="304" y="166">≥1.61B</text>
<text class="meta" x="304" y="180">Partial</text>
</svg>
