<?xml version="1.0" encoding="UTF-8"?>
<svg xmlns="http://www.w3.org/2000/svg" viewBox="0 0 500 460" role="img" aria-labelledby="usage-trends-title usage-trends-desc">
<title id="usage-trends-title">AI usage trends</title>
<desc id="usage-trends-desc">Daily, weekly, and monthly token trends as of 2026-07-20. Mixed calendar bars use approximate values; dashed bars distinguish mixed, partial, and unknown observations.</desc>
<style>:root{--bg:#ffffff;--surface:#f6f8fa;--border:#d0d7de;--text:#1f2328;--muted:#59636e;--accent:#8250df;--accent-soft:#d8c7ff;--claude:#d97706;--codex:#2563eb;--mixed:#0969da;--unknown:#57606a;--zero:#eaeef2;--on-accent:#ffffff;--on-partial:#1f2328;--on-mixed:#ffffff;--on-unknown:#ffffff;--heat-1:#d8c7ff;--heat-2:#b083f0;--heat-3:#8250df;--heat-4:#5a2ca0}
@media (prefers-color-scheme: dark){:root{--bg:#0d1117;--surface:#161b22;--border:#30363d;--text:#e6edf3;--muted:#8b949e;--accent:#a371f7;--accent-soft:#4c2889;--claude:#f59e0b;--codex:#58a6ff;--mixed:#58a6ff;--unknown:#8b949e;--zero:#21262d;--on-accent:#0d1117;--on-partial:#0d1117;--on-mixed:#0d1117;--on-unknown:#0d1117;--heat-1:#2b1d45;--heat-2:#4c2889;--heat-3:#8250df;--heat-4:#a371f7}}
.card-bg{fill:var(--bg);stroke:var(--border);stroke-width:1}
.surface{fill:var(--surface);stroke:var(--border);stroke-width:1}
.heading{fill:var(--text);font-family:sans-serif;font-size:18px;font-weight:700}
.subheading{fill:var(--muted);font-family:sans-serif;font-size:11px}
.label{fill:var(--muted);font-family:sans-serif;font-size:10px;font-weight:600}
.value{fill:var(--text);font-family:sans-serif;font-size:20px;font-weight:700}
.small-value{fill:var(--text);font-family:sans-serif;font-size:12px;font-weight:600}
.meta{fill:var(--muted);font-family:sans-serif;font-size:9px}
.badge-complete{fill:var(--accent)}
.badge-partial{fill:var(--claude)}
.badge-mixed{fill:var(--mixed)}
.badge-unknown{fill:var(--unknown)}
.badge-text{font-family:sans-serif;font-size:8px;font-weight:700}
.badge-text-complete{fill:var(--on-accent)}
.badge-text-partial{fill:var(--on-partial)}
.badge-text-mixed{fill:var(--on-mixed)}
.badge-text-unknown{fill:var(--on-unknown)}
.axis{stroke:var(--border);stroke-width:1}
.source-claude{fill:var(--claude)}
.source-codex{fill:var(--codex)}
.mix-input{fill:#2da44e}
.mix-output{fill:#cf222e}
.mix-cache-read{fill:#bf8700}
.mix-cache-write{fill:#8250df}
.mix-unknown{fill:var(--unknown)}
.trend-bar{fill:var(--accent)}
.state-zero{fill:var(--zero)}
.state-partial{fill:var(--accent);stroke:var(--claude);stroke-width:1;stroke-dasharray:2 2}
.state-mixed{fill:var(--accent);stroke:var(--mixed);stroke-width:1;stroke-dasharray:4 2}
.state-unknown{fill:none;stroke:var(--unknown);stroke-width:1;stroke-dasharray:2 2}
.heat-cell{stroke:var(--border);stroke-width:0.5}
.state-future{fill:none;stroke:var(--border)}
.level-1{fill:var(--heat-1)}
.level-2{fill:var(--heat-2)}
.level-3{fill:var(--heat-3)}
.level-4{fill:var(--heat-4)}
.coverage-partial{stroke:var(--claude);stroke-width:1;stroke-dasharray:1 1}
.coverage-mixed{stroke:var(--mixed);stroke-width:1;stroke-dasharray:3 1}</style>
<rect class="card-bg" x="0.5" y="0.5" width="499" height="459" rx="10"/>
<text class="heading" x="24" y="31">Usage trends</text>
<text class="subheading" x="24" y="51">As of 2026-07-20 · ≈ marks mixed calendar dates</text>
<text class="label" x="24" y="80">Daily · 30 days</text>
<text class="meta" x="476" y="80" text-anchor="end">Peak 1.61B</text>
<line class="axis" x1="24" y1="140" x2="476" y2="140"/>
<rect class="trend-bar state-partial" x="25" y="139" width="13" height="1" rx="1"/>
<rect class="trend-bar state-partial" x="40" y="139" width="13" height="1" rx="1"/>
<rect class="trend-bar state-partial" x="55" y="139" width="13" height="1" rx="1"/>
<rect class="trend-bar state-partial" x="70" y="139" width="13" height="1" rx="1"/>
<rect class="trend-bar state-partial" x="85" y="139" width="13" height="1" rx="1"/>
<rect class="trend-bar state-partial" x="100" y="139" width="13" height="1" rx="1"/>
<rect class="trend-bar state-partial" x="115" y="139" width="13" height="1" rx="1"/>
<rect class="trend-bar state-partial" x="130" y="139" width="13" height="1" rx="1"/>
<rect class="trend-bar state-partial" x="145" y="139" width="13" height="1" rx="1"/>
<rect class="trend-bar state-partial" x="160" y="139" width="13" height="1" rx="1"/>
<rect class="trend-bar state-partial" x="175" y="139" width="13" height="1" rx="1"/>
<rect class="trend-bar state-partial" x="190" y="138" width="13" height="2" rx="1"/>
<rect class="trend-bar state-partial" x="205" y="125" width="13" height="15" rx="1"/>
<rect class="trend-bar state-partial" x="220" y="133" width="13" height="7" rx="1"/>
<rect class="trend-bar state-partial" x="235" y="134" width="13" height="6" rx="1"/>
<rect class="trend-bar state-partial" x="250" y="135" width="13" height="5" rx="1"/>
<rect class="trend-bar state-partial" x="265" y="139" width="13" height="1" rx="1"/>
<rect class="trend-bar state-partial" x="280" y="138" width="13" height="2" rx="1"/>
<rect class="trend-bar state-partial" x="295" y="138" width="13" height="2" rx="1"/>
<rect class="trend-bar state-partial" x="310" y="139" width="13" height="1" rx="1"/>
<rect class="trend-bar state-partial" x="325" y="109" width="13" height="31" rx="1"/>
<rect class="trend-bar state-partial" x="340" y="100" width="13" height="40" rx="1"/>
<rect class="trend-bar state-partial" x="355" y="138" width="13" height="2" rx="1"/>
<rect class="trend-bar state-partial" x="370" y="139" width="13" height="1" rx="1"/>
<rect class="trend-bar state-partial" x="385" y="139" width="13" height="1" rx="1"/>
<rect class="trend-bar state-partial" x="400" y="139" width="13" height="1" rx="1"/>
<rect class="trend-bar state-partial" x="415" y="125" width="13" height="15" rx="1"/>
<rect class="trend-bar state-partial" x="430" y="138" width="13" height="2" rx="1"/>
<rect class="trend-bar state-partial" x="445" y="86" width="13" height="54" rx="1"/>
<rect class="trend-bar state-active" x="460" y="125" width="13" height="15" rx="1"/>
<text class="meta" x="24" y="155">2026-06-21</text>
<text class="meta" x="476" y="155" text-anchor="end">2026-07-20</text>
<text class="label" x="24" y="206">Weekly · 12 Monday-based weeks</text>
<text class="meta" x="476" y="206" text-anchor="end">Peak 2.31B</text>
<line class="axis" x1="24" y1="266" x2="476" y2="266"/>
<rect class="trend-bar state-partial" x="25" y="265" width="35" height="1" rx="1"/>
<rect class="trend-bar state-partial" x="62.5" y="265" width="35" height="1" rx="1"/>
<rect class="trend-bar state-partial" x="100" y="265" width="35" height="1" rx="1"/>
<rect class="trend-bar state-partial" x="137.5" y="265" width="35" height="1" rx="1"/>
<rect class="trend-bar state-partial" x="175" y="263" width="35" height="3" rx="1"/>
<rect class="trend-bar state-partial" x="212.5" y="253" width="35" height="13" rx="1"/>
<rect class="trend-bar state-partial" x="250" y="262" width="35" height="4" rx="1"/>
<rect class="trend-bar state-partial" x="287.5" y="265" width="35" height="1" rx="1"/>
<rect class="trend-bar state-partial" x="325" y="246" width="35" height="20" rx="1"/>
<rect class="trend-bar state-partial" x="362.5" y="212" width="35" height="54" rx="1"/>
<rect class="trend-bar state-partial" x="400" y="217" width="35" height="49" rx="1"/>
<rect class="trend-bar state-active" x="437.5" y="255" width="35" height="11" rx="1"/>
<text class="meta" x="24" y="281">2026-05-04</text>
<text class="meta" x="476" y="281" text-anchor="end">2026-07-20</text>
<text class="label" x="24" y="332">Monthly · 12 months</text>
<text class="meta" x="476" y="332" text-anchor="end">Peak 5.73B</text>
<line class="axis" x1="24" y1="392" x2="476" y2="392"/>
<rect class="trend-bar state-unknown" x="25" y="384" width="35" height="8" rx="1"/>
<rect class="trend-bar state-unknown" x="62.5" y="384" width="35" height="8" rx="1"/>
<rect class="trend-bar state-unknown" x="100" y="384" width="35" height="8" rx="1"/>
<rect class="trend-bar state-unknown" x="137.5" y="384" width="35" height="8" rx="1"/>
<rect class="trend-bar state-unknown" x="175" y="384" width="35" height="8" rx="1"/>
<rect class="trend-bar state-unknown" x="212.5" y="384" width="35" height="8" rx="1"/>
<rect class="trend-bar state-partial" x="250" y="389" width="35" height="3" rx="1"/>
<rect class="trend-bar state-partial" x="287.5" y="391" width="35" height="1" rx="1"/>
<rect class="trend-bar state-partial" x="325" y="390" width="35" height="2" rx="1"/>
<rect class="trend-bar state-partial" x="362.5" y="391" width="35" height="1" rx="1"/>
<rect class="trend-bar state-partial" x="400" y="384" width="35" height="8" rx="1"/>
<rect class="trend-bar state-partial" x="437.5" y="338" width="35" height="54" rx="1"/>
<text class="meta" x="24" y="407">2025-08-01</text>
<text class="meta" x="476" y="407" text-anchor="end">2026-07-20</text>
</svg>
